<svg xmlns="http://www.w3.org/2000/svg" viewBox="0 0 561.91 288.83"><defs><style>.cls-1,.cls-2{fill:none;}.cls-1{stroke:#e71d73;}.cls-1,.cls-2,.cls-3,.cls-4,.cls-6{stroke-miterlimit:10;stroke-width:4px;}.cls-2{stroke:#00a19a;}.cls-3{fill:#e71d73;opacity:0.08;}.cls-3,.cls-4,.cls-6{stroke:#fff;}.cls-4{fill:#d60b52;}.cls-4,.cls-7{opacity:0.07;}.cls-5{opacity:0.1;}.cls-6{fill:#00a19a;}</style></defs><g id="Capa_2" data-name="Capa 2"><g id="Capa_1-2" data-name="Capa 1"><path class="cls-1" d="M519.22,53.31c13.31,31.64,14.83,44.29,10.72,47-11.25,7.45-74.51-52.63-65-69.43,4.56-8,27-8.15,38.9,3,10.52,9.77,13.13,28.39,7.27,32.6-7.14,5.13-30.53-8.5-30.09-20.89.13-3.56,2.25-7.91,5.19-8.4,5.55-.92,11.88,13,13.83,17.26,9.93,21.76,13.74,56.7,2.85,61.49-15.06,6.61-68.3-39.87-57-80.41,4.19-15,17.51-30.28,34.21-33.05,28.7-4.76,52.16,30,60.69,49.07,7.26,16.25,17.41,51.88-.34,67-13.32,11.36-35.1,5-44.5,2.21-22.42-6.59-47.77-25.21-53.34-51.19-6.25-29.14,16-50.74,9.57-55.86-7-5.63-40.15,15.39-58.49,47.65-6.29,11-27.22,47.88-9.69,78.2,13.07,22.6,39.63,28,46.7,29.38,47.89,9.65,86.14-28.7,90.19-32.89"/><path class="cls-2" d="M1.61,88c18.45,24.82,62.78,76.94,138.46,101.69a274.21,274.21,0,0,0,71.17,12.93c81.87,4,146.17-29.64,178-49.79"/><path class="cls-2" d="M166.29,199.46c-17.83,39.52-14.6,73.61.1,81.68,15.27,8.39,49.38-7.79,55.8-34.42,6.75-27.95-20.44-53.3-41.89-59.34a43.05,43.05,0,0,0-6.76-1.34"/><path class="cls-2" d="M176.3,198.75a40.51,40.51,0,0,1,7.51,9.48c11.17,19.53,2,42.18.06,46.62"/><path class="cls-2" d="M228.3,214.9c39.63-79,39.49-100.44,32.46-105.77-9.59-7.27-42.39,7.59-52.64,35.72-10,27.33,7.23,51.09,8.6,52.92"/><path class="cls-2" d="M225,191.25c-2-3.28-8.86-15.35-6.17-31,3.74-21.81,22.81-31.74,25-32.81"/><path class="cls-1" d="M404.05,243.55c-7.36,15-11.52,19.55-13.83,18.91-6.31-1.75-4.44-44.1,4.76-46,4.41-.89,11.59,7.29,11.32,15.21-.23,7-6.23,13.86-9.64,13.06-4.16-1-6.61-13.91-1.93-17.7,1.35-1.09,3.62-1.7,4.74-.77,2.1,1.74-1,8.5-1.92,10.57-4.82,10.58-16.42,23.11-21.65,20.64-7.22-3.41-7.14-37.76,11.33-46.53,6.84-3.24,16.69-3.23,23,2,10.9,9,5.64,28.69,1.35,37.91-3.65,7.84-13.48,22.92-24.69,21.23-8.41-1.27-13-11.29-15-15.62-4.73-10.32-6-25.56,1.77-35.88,8.7-11.58,23.71-10.31,23.55-14.3-.18-4.37-18.45-9.82-36.13-6.26-6.05,1.22-26.23,5.27-31.77,21.37-4.12,12,2.38,23.45,4.11,26.5,11.72,20.63,38,22.44,40.81,22.59"/><path class="cls-2" d="M240.69,202.44a119.09,119.09,0,0,1,47,2,123.3,123.3,0,0,1,41.05,18.45"/><path class="cls-3" d="M530,63c12.8,30.42,14.26,42.57,10.3,45.19-10.81,7.16-71.63-50.6-62.46-66.75,4.39-7.74,25.92-7.83,37.41,2.84,10.11,9.39,12.62,27.29,7,31.34-6.86,4.93-29.35-8.18-28.93-20.09.12-3.42,2.16-7.6,5-8.07,5.33-.89,11.43,12.5,13.29,16.59,9.56,20.93,13.22,54.51,2.74,59.11-14.47,6.36-65.65-38.32-54.78-77.3,4-14.42,16.83-29.1,32.88-31.77,27.6-4.58,50.16,28.82,58.35,47.18,7,15.62,16.74,49.87-.32,64.42-12.81,10.92-33.74,4.77-42.79,2.12-21.54-6.33-45.92-24.24-51.28-49.21-6-28,15.36-48.79,9.2-53.71-6.76-5.41-38.59,14.8-56.23,45.82-6,10.62-26.17,46-9.31,75.17,12.57,21.74,38.1,26.88,44.9,28.25,46,9.28,82.81-27.59,86.7-31.62"/><path class="cls-4" d="M403,253.16c-7.36,15-11.52,19.56-13.83,18.92-6.32-1.76-4.44-44.11,4.76-46,4.41-.9,11.58,7.29,11.32,15.21-.23,7-6.23,13.86-9.64,13-4.16-1-6.61-13.9-1.93-17.69,1.34-1.09,3.62-1.7,4.74-.78,2.1,1.74-1,8.51-1.93,10.58-4.82,10.58-16.42,23.11-21.65,20.64-7.22-3.41-7.14-37.76,11.34-46.53,6.83-3.24,16.68-3.23,23,2,10.9,9,5.63,28.69,1.35,37.91-3.65,7.84-13.48,22.92-24.69,21.23-8.42-1.27-13-11.29-15-15.62-4.72-10.32-6-25.56,1.78-35.88,8.7-11.58,23.71-10.31,23.54-14.3-.18-4.37-18.44-9.82-36.12-6.26-6.06,1.21-26.24,5.27-31.77,21.37-4.13,12,2.37,23.44,4.11,26.49,11.72,20.64,38,22.45,40.8,22.6"/><g class="cls-5"><path class="cls-6" d="M158.63,202.92c-17.83,39.53-14.6,73.62.1,81.69,15.28,8.39,49.38-7.8,55.81-34.42,6.74-28-20.45-53.31-41.89-59.35a45.34,45.34,0,0,0-6.77-1.34"/><path class="cls-6" d="M168.64,202.21a40.84,40.84,0,0,1,7.52,9.48c11.16,19.54,2,42.18.05,46.62"/></g><g class="cls-7"><path class="cls-6" d="M236.2,212.26c39.63-79,39.49-100.45,32.46-105.78-9.59-7.26-42.39,7.6-52.64,35.73-10,27.33,7.23,51.09,8.6,52.91"/><path class="cls-6" d="M232.88,188.6c-2-3.28-8.85-15.35-6.17-31,3.75-21.81,22.81-31.73,24.95-32.8"/></g></g></g></svg>