<svg xmlns="http://www.w3.org/2000/svg" viewBox="0 0 681.01 225.67"><defs><style>.cls-1{fill:#3c3c3b;}</style></defs><g id="Capa_2" data-name="Capa 2"><g id="Capa_1-2" data-name="Capa 1"><path class="cls-1" d="M58.7,182.83h5.44v37.59h18V225H58.7Z"/><path class="cls-1" d="M93.66,182.83V225H88.22V182.83Z"/><path class="cls-1" d="M103.17,183.39a52.75,52.75,0,0,1,9.94-.87c5.44,0,9,.93,11.57,3.06a8.85,8.85,0,0,1,3.51,7.44c0,4.07-2.69,7.63-7.13,9.26v.13c4,1,8.69,4.31,8.69,10.57a11.35,11.35,0,0,1-3.57,8.44c-2.94,2.69-7.69,3.94-14.57,3.94a63.58,63.58,0,0,1-8.44-.5Zm5.44,17.26h4.94c5.75,0,9.13-3,9.13-7.06,0-4.94-3.75-6.88-9.26-6.88a23.19,23.19,0,0,0-4.81.37Zm0,20.21a30,30,0,0,0,4.56.25c5.63,0,10.82-2.07,10.82-8.2,0-5.75-4.94-8.13-10.88-8.13h-4.5Z"/><path class="cls-1" d="M137.06,183.39a57.11,57.11,0,0,1,10.45-.87c5.81,0,9.57,1.06,12.19,3.44a10.47,10.47,0,0,1,3.32,8,11.07,11.07,0,0,1-7.94,10.76v.19c3.25,1.12,5.19,4.13,6.19,8.5,1.37,5.88,2.38,10,3.25,11.57h-5.63c-.69-1.18-1.62-4.81-2.81-10.07-1.25-5.81-3.51-8-8.45-8.19H142.5V225h-5.44Zm5.44,19.2h5.57c5.82,0,9.51-3.19,9.51-8,0-5.44-3.94-7.82-9.7-7.88a22.49,22.49,0,0,0-5.38.5Z"/><path class="cls-1" d="M192.54,205.22H176.15v15.2h18.26V225h-23.7V182.83h22.77v4.56H176.15v13.33h16.39Z"/><path class="cls-1" d="M201.48,183.39a56.92,56.92,0,0,1,10.44-.87c5.82,0,9.57,1.06,12.2,3.44a10.46,10.46,0,0,1,3.31,8,11.07,11.07,0,0,1-7.94,10.76v.19c3.25,1.12,5.19,4.13,6.19,8.5,1.38,5.88,2.38,10,3.26,11.57h-5.63c-.69-1.18-1.63-4.81-2.82-10.07-1.25-5.81-3.5-8-8.44-8.19h-5.13V225h-5.44Zm5.44,19.2h5.57c5.81,0,9.5-3.19,9.5-8,0-5.44-3.94-7.82-9.69-7.88a22.42,22.42,0,0,0-5.38.5Z"/><path class="cls-1" d="M247,173.26l-8,7.32h-4.44l5.76-7.32Zm-6.44,9.57V225h-5.45V182.83Z"/><path class="cls-1" d="M256.89,211.72,252.51,225h-5.63l14.32-42.15h6.57L282.16,225h-5.82l-4.5-13.26Zm13.82-4.25-4.13-12.13c-.93-2.76-1.56-5.26-2.19-7.7h-.12c-.63,2.51-1.31,5.07-2.13,7.63L258,207.47Z"/><path class="cls-1" d="M308.11,225V207.1l-13.32-24.27H301l5.94,11.63c1.63,3.19,2.88,5.76,4.19,8.7h.13c1.19-2.76,2.62-5.51,4.25-8.7l6.07-11.63h6.19L313.61,207V225Z"/><path class="cls-1" d="M375.28,223.61a27.06,27.06,0,0,1-11.14,2c-11.88,0-20.82-7.51-20.82-21.33,0-13.2,8.94-22.14,22-22.14,5.26,0,8.57,1.13,10,1.88L374,188.46a19.88,19.88,0,0,0-8.51-1.75c-9.88,0-16.45,6.31-16.45,17.38,0,10.32,5.94,16.95,16.2,16.95a21.65,21.65,0,0,0,8.88-1.75Z"/><path class="cls-1" d="M416.8,203.47c0,14.51-8.81,22.2-19.57,22.2-11.14,0-19-8.63-19-21.39,0-13.38,8.31-22.14,19.57-22.14C409.36,182.14,416.8,191,416.8,203.47Zm-32.71.69c0,9,4.88,17.07,13.45,17.07s13.51-7.94,13.51-17.51c0-8.38-4.38-17.14-13.45-17.14S384.09,194.9,384.09,204.16Z"/><path class="cls-1" d="M430.31,187.46H417.49v-4.63H448.7v4.63H435.81V225h-5.5Z"/><path class="cls-1" d="M458.83,182.83V225h-5.44V182.83Z"/><path class="cls-1" d="M468.33,182.83h5.45v37.59h18V225H468.33Z"/><path class="cls-1" d="M497.85,182.83h5.44v37.59h18V225H497.85Z"/><path class="cls-1" d="M561,203.47c0,14.51-8.82,22.2-19.58,22.2-11.13,0-19-8.63-19-21.39,0-13.38,8.32-22.14,19.58-22.14C553.51,182.14,561,191,561,203.47Zm-32.71.69c0,9,4.87,17.07,13.44,17.07s13.51-7.94,13.51-17.51c0-8.38-4.38-17.14-13.44-17.14S528.25,194.9,528.25,204.16Zm22.57-31-7.94,7.26h-4.5l5.82-7.26Z"/><path class="cls-1" d="M568,225V182.83H574l13.51,21.33A119.05,119.05,0,0,1,595,217.85l.13-.06c-.5-5.63-.63-10.76-.63-17.32V182.83h5.13V225h-5.51l-13.38-21.39a133.81,133.81,0,0,1-7.88-14.07l-.19.06c.31,5.32.44,10.39.44,17.39v18Z"/><path class="cls-1" d="M13.72,132.55h1.66a19.35,19.35,0,0,0,5.07-7.65,60.48,60.48,0,0,0,3.1-11.16A111.89,111.89,0,0,0,25.1,100.4q.41-7.14.41-14.17a21.59,21.59,0,0,1-10.75-1.86,20.49,20.49,0,0,1-9.31-8.06A24,24,0,0,1,1.94,65.66a39.65,39.65,0,0,1,1.44-14,11.62,11.62,0,0,1,1.76-4.24,7.89,7.89,0,0,1,2.17-2.17,5.64,5.64,0,0,1,3.31-.21,3.17,3.17,0,0,1,2.28,2.07c1,1.65.82,4-.42,7a8.91,8.91,0,0,1-1,2.17c-.41.62-.83,1.28-1.24,2a16.73,16.73,0,0,0-2.38,4.23q-.93,2.39.31,6.52A13.89,13.89,0,0,0,10,73.41a14.3,14.3,0,0,0,7,6,15.21,15.21,0,0,0,8.48,1.45V74.65c0-2.07-.07-4.2-.21-6.41q-.19-12.61,0-24.61a102.74,102.74,0,0,1,2.38-21.3q2.17-9.3,7.24-15T49.5,1.65c3,0,5.38.76,7,2.28q4.14,2.9,6,9.3a49,49,0,0,1,1.65,13,83,83,0,0,1-.93,12.1,90.54,90.54,0,0,1-2.69,12.3,86,86,0,0,1-4.24,11.48,50.67,50.67,0,0,1-5.58,9.62,33.23,33.23,0,0,1-3.52,4.13,48.47,48.47,0,0,1-3.92,3.52q0,7.86-.52,16a83.22,83.22,0,0,1-2.38,15.4,61.27,61.27,0,0,1-5.07,13.34,29.76,29.76,0,0,1-8.37,10c2.89.69,5.93,1.52,9.1,2.48s6.41,2,9.72,3.1q6.61,2.07,13.23,4a92.81,92.81,0,0,0,12,2.8,30.38,30.38,0,0,0,9.3.2q3.93-.62,5.17-3.72a5,5,0,0,1,1.55-3,2.47,2.47,0,0,1,2.07-.72,2.39,2.39,0,0,1,1.55,1.45,4.41,4.41,0,0,1,0,3.3,26.42,26.42,0,0,1-2.17,6.31,21.72,21.72,0,0,1-4.24,5.9,16.65,16.65,0,0,1-6.2,3.82,20.35,20.35,0,0,1-8.69.93,29,29,0,0,1-10.44-3.31q-5.69-2.9-12.1-6.61-6.62-3.73-13.65-7.35a54.78,54.78,0,0,0-14.06-5.06,27.31,27.31,0,0,1-4.76,1.65,52.28,52.28,0,0,1-5.37,1c-2.9.68-5,.75-6.21.2a3.44,3.44,0,0,1-2.68-2.89c-.28-1.1.2-2.14,1.44-3.1q1.86-1.86,7.86-2.9a20.49,20.49,0,0,0,2.07-.1A22.57,22.57,0,0,1,13.72,132.55ZM49.29,7a11.36,11.36,0,0,0-5.48,6.41,39.32,39.32,0,0,0-2.27,11,119.54,119.54,0,0,0-.21,14.37q.31,8,.93,16.44c.28,2.76.48,5.59.62,8.48l.42,8.69a33.75,33.75,0,0,0,3.1-3.72,42.27,42.27,0,0,0,5.17-8.9A92.64,92.64,0,0,0,55.5,49,79.12,79.12,0,0,0,58,37.53a81.35,81.35,0,0,0,.83-11.27,39.11,39.11,0,0,0-1.45-11.58,12,12,0,0,0-3.93-6.41A6.38,6.38,0,0,0,49.5,7Z"/><path class="cls-1" d="M131.59,128a24.67,24.67,0,0,0,6.62-6.61,74.46,74.46,0,0,0,7.24-12.51,149.44,149.44,0,0,0,5.79-14.38A4.36,4.36,0,0,1,152.89,92a2.34,2.34,0,0,1,2-.31,2.84,2.84,0,0,1,1.55,1.45,3.29,3.29,0,0,1,0,2.79,141.8,141.8,0,0,1-6.1,15.2,76.94,76.94,0,0,1-7.76,13.34,27.66,27.66,0,0,1-7.65,7.86,10.56,10.56,0,0,1-8.48,1.65H126a.65.65,0,0,0-.41-.21q-6.63-2.26-10.14-9.51a52.86,52.86,0,0,1-4.55-18q-1.65,5-3.61,9.93a59.84,59.84,0,0,1-4.35,8.89,29.65,29.65,0,0,1-5.17,6.51,9.55,9.55,0,0,1-5.89,2.8c-5,.41-9.07-.86-12.3-3.83a25.94,25.94,0,0,1-7.14-11.89A54,54,0,0,1,70,98.23a103.76,103.76,0,0,1,1.45-11.17,68.51,68.51,0,0,1,2.89-10.75,58.19,58.19,0,0,1,5-10,33.77,33.77,0,0,1,6.61-7.86,26.06,26.06,0,0,1,8.38-4.86,22,22,0,0,1,10-1A26.86,26.86,0,0,1,107,53a6.43,6.43,0,0,1,2.48,1.35c2.07,1.52,3.79,4.06,5.17,7.65a.87.87,0,0,0,.2.62L116.5,56l.62-2.27a4.77,4.77,0,0,1,2-3.31,7.85,7.85,0,0,1,3.62-1.24h1.76a5,5,0,0,1,1.76.41,22.26,22.26,0,0,1,3.1,1.65A9.31,9.31,0,0,1,132.73,55a7,7,0,0,1,.31,5.17q-1.24,3.93-2.38,9T128.8,79.72q-.72,5.48-1.34,11.27t-.83,11.37a155.55,155.55,0,0,0,0,19.65,21.92,21.92,0,0,0,1.35,5.37Q128.91,129.66,131.59,128ZM102.64,59.14a15.51,15.51,0,0,0-6,6.1,64.15,64.15,0,0,0-5,10.45,100.72,100.72,0,0,0-5.17,25,106.41,106.41,0,0,0-.51,12.1,43.71,43.71,0,0,0,1.13,9.82c1.11,4.41,2.55,6.55,4.35,6.41q2.47-.21,4.86-3a32.91,32.91,0,0,0,4.44-7.13,75.56,75.56,0,0,0,3.72-9.52q1.66-5.16,3.11-10.23T110,89.85q.93-4.23,1.35-6.51a12.58,12.58,0,0,1,.1-1.76c.07-.48.17-1.07.31-1.76q-.21-4.54-.72-8.68a38.26,38.26,0,0,0-1.55-7.24q-.42-1-.93-2.07a17.43,17.43,0,0,0-.93-1.65A3.47,3.47,0,0,0,102.64,59.14Z"/><path class="cls-1" d="M151.24,94.5c.27-.82.58-1.82.93-3s.65-2.31.93-3.42c.27-.82.52-1.65.72-2.48s.45-1.79.73-2.89A31.72,31.72,0,0,1,150.93,75a26.41,26.41,0,0,1-1.14-9.2,19.85,19.85,0,0,1,3.93-12,19.48,19.48,0,0,1,9.1-6.62,21.73,21.73,0,0,1,8.48-1.45,18.36,18.36,0,0,1,8.27,2.07,17,17,0,0,1,8.06,7.44,20.78,20.78,0,0,1,2.07,11.17,12.36,12.36,0,0,1-1.24,5.17,7.62,7.62,0,0,1-2.27,2.69,4.48,4.48,0,0,1-4.55.41A5,5,0,0,1,179,71.76a7.2,7.2,0,0,1-.21-3,5,5,0,0,1,1.86-3,14.65,14.65,0,0,0,1.45-2.17,7.73,7.73,0,0,0,.83-2.59,10.47,10.47,0,0,0-1-4.75,12.17,12.17,0,0,0-4.55-3.72,15.42,15.42,0,0,0-6.2-1.45,6.41,6.41,0,0,0-6.2,3.82,11.55,11.55,0,0,0-1,3.83,18.43,18.43,0,0,0,0,3.93,19.08,19.08,0,0,0,1.66,6.41A24.5,24.5,0,0,0,171,76.82q3.82,3.84,8.17,8,5.78,5.37,11,11.06a35,35,0,0,1,7.44,12.51,30.15,30.15,0,0,0,7.75-5.27,20.85,20.85,0,0,0,5.28-8.59,3.23,3.23,0,0,1,1.65-1.65,2.81,2.81,0,0,1,2-.1A2.5,2.5,0,0,1,215.65,94a2.61,2.61,0,0,1,.11,2.17,26.5,26.5,0,0,1-6.93,11.27,33.24,33.24,0,0,1-10.24,6.31,27.75,27.75,0,0,1-1.13,10.13A31.92,31.92,0,0,1,192.39,134a37.21,37.21,0,0,1-7.13,7.24,41.28,41.28,0,0,1-9.83,5.58,26.26,26.26,0,0,1-11.16,2.48,21,21,0,0,1-7.76-1.75,17.44,17.44,0,0,1-5.69-4,16.72,16.72,0,0,1-3.3-6.61,18.16,18.16,0,0,1-.21-7.24,17.74,17.74,0,0,1,4.55-8.07,21.58,21.58,0,0,1,9.92-5.58c2.49-.69,5-1.27,7.55-1.76s5.2-.86,8-1.13l2.9-.42a32.35,32.35,0,0,0-5.07-6.93q-3.21-3.4-6.92-6.92c-1.66-1.66-3.28-3.31-4.86-5s-3.14-3.37-4.66-5.17l-.2.83-2.07,6.62A3,3,0,0,1,153,98.23a2.51,2.51,0,0,1-1.55-1.14A3.15,3.15,0,0,1,151.24,94.5Zm30.6,23.37-3.72.62c-2.62.28-5.17.62-7.65,1a60.49,60.49,0,0,0-7.24,1.65,16.61,16.61,0,0,0-7.24,4,13.05,13.05,0,0,0-3.3,5.69,9.14,9.14,0,0,0,0,4.76A12,12,0,0,0,155,140a15,15,0,0,0,3.93,2.79,12.39,12.39,0,0,0,5.58,1.14,18.37,18.37,0,0,0,8.69-2.07,15.7,15.7,0,0,0,6.62-6.41,21.87,21.87,0,0,0,2.48-7.65,29.62,29.62,0,0,0-.42-9.72Z"/><path class="cls-1" d="M293.3,5.38a12,12,0,0,0-7.44,2.68,28.57,28.57,0,0,0-6.52,7.35,62.51,62.51,0,0,0-5.48,11,111.28,111.28,0,0,0-4.34,13.75,126.35,126.35,0,0,0-2.9,15.2q-1,8-1.44,15.82a122.62,122.62,0,0,0,1.65,30.4,89.39,89.39,0,0,0,3.21,12.4,40.34,40.34,0,0,0,4.86,10,26,26,0,0,0,6.61,6.83,15.8,15.8,0,0,0,8.48,2.79v.2a20.77,20.77,0,0,0,5.9-.82,23.73,23.73,0,0,0,5.27-2.28,28,28,0,0,0,10.34-11.78A40.64,40.64,0,0,0,315,102.57a33.21,33.21,0,0,0-2.27-12.2,3.92,3.92,0,0,1-.31-2.59,2.6,2.6,0,0,1,1.24-1.65,2.4,2.4,0,0,1,2.07-.1,3.15,3.15,0,0,1,1.76,1.86,37.36,37.36,0,0,1,2.89,14.68,43.59,43.59,0,0,1-4.14,18.61,38.32,38.32,0,0,1-5.17,8.07,28.42,28.42,0,0,1-7.23,6.2,35.44,35.44,0,0,1-6.62,2.69,26.3,26.3,0,0,1-7.45,1,35.49,35.49,0,0,1-14.57-2.89,36.82,36.82,0,0,1-11.48-8,47.09,47.09,0,0,1-8.48-12.09,75.38,75.38,0,0,1-5.58-15.1,95.15,95.15,0,0,1-3.1-27.71,100,100,0,0,1,1-14.37q1-7.14,2.69-14A102.2,102.2,0,0,1,256.7,27.5,61.73,61.73,0,0,1,266,13.13a41.82,41.82,0,0,1,12.2-9.61A32.4,32.4,0,0,1,293.3,0a28.32,28.32,0,0,1,7.24.83,25.56,25.56,0,0,1,8.68,4.34,22.54,22.54,0,0,1,6,7,8.74,8.74,0,0,1,1.34,2.38q.53,1.35,1.14,2.58a18.87,18.87,0,0,1,1.24,4.76,30.85,30.85,0,0,1,.83,7.44,38.93,38.93,0,0,1-1,8.48c-1,3.18-2.35,5.1-4.14,5.79a2.84,2.84,0,0,1-3.1.21A3.92,3.92,0,0,1,309.22,42a6.94,6.94,0,0,1-1-3.1,7.14,7.14,0,0,1,.62-3.73l1.86-3.51q1-2.07,2.17-4.45a8.5,8.5,0,0,0,.73-5.06,28.53,28.53,0,0,0-2.9-7.24,21.17,21.17,0,0,0-4.76-5.48A17.74,17.74,0,0,0,299.09,6,23.73,23.73,0,0,0,293.3,5.38Z"/><path class="cls-1" d="M359.27,60.59a11.44,11.44,0,0,1,9,1.55,21.42,21.42,0,0,1,6.52,7.34,34.65,34.65,0,0,1,3.51,8.89A62.5,62.5,0,0,1,380,88.71a83.31,83.31,0,0,1,.1,11,60.38,60.38,0,0,1-1.55,10.76,17.15,17.15,0,0,0,4.55-1.55,25.09,25.09,0,0,0,4.55-3,26.08,26.08,0,0,0,4.34-4.65,27.12,27.12,0,0,0,3.52-6.73,2.5,2.5,0,0,1,1.44-1.65,3.08,3.08,0,0,1,2.07-.1A2.51,2.51,0,0,1,400.52,94a3.07,3.07,0,0,1,.11,2.38,29.73,29.73,0,0,1-4.14,8.06,29.24,29.24,0,0,1-5.38,5.58,26.41,26.41,0,0,1-7.23,4.35,30.59,30.59,0,0,1-6.83,1.86,39.57,39.57,0,0,1-4.34,9.1,23.81,23.81,0,0,1-6.21,6.61,15.9,15.9,0,0,1-7.75,2.9,24.38,24.38,0,0,1-8.38-.62A21.31,21.31,0,0,1,339,127.59a30.33,30.33,0,0,1-4.34-6.1,40.55,40.55,0,0,1-3.1-7.34,53.84,53.84,0,0,1-2.49-16.75A72.29,72.29,0,0,1,333,74a45.49,45.49,0,0,1,11.58-18.82,7.27,7.27,0,0,1,7.86-1.86A9.78,9.78,0,0,1,356,55.21,9.41,9.41,0,0,1,359.27,60.59Zm-12.2,29-.83,5.79q-.42,5.39-.31,10.44a47,47,0,0,0,1.14,9.62,33.39,33.39,0,0,0,2.68,7.34,13.51,13.51,0,0,0,3.93,4.86,7.55,7.55,0,0,0,9.31.21,15.63,15.63,0,0,0,4.76-4.76,34.18,34.18,0,0,0,3.51-7,26.1,26.1,0,0,1-11.48-4.55,29.09,29.09,0,0,1-8-8.68A38.86,38.86,0,0,1,347.07,89.54Zm8.68-21.09a16.64,16.64,0,0,0-3.1,7,35.89,35.89,0,0,0-.41,12.2,33.85,33.85,0,0,0,4.34,12.41,24.38,24.38,0,0,0,6.51,7.13,19.58,19.58,0,0,0,9.83,3.62l.41-1.45a82,82,0,0,0,1.24-20.26A55,55,0,0,0,373,79.82a32.45,32.45,0,0,0-3-7.65q-2.68-5.37-6.82-6.2Q358.85,64.72,355.75,68.45Z"/><path class="cls-1" d="M460.18,128a17.9,17.9,0,0,0,4.55-5.58,65.42,65.42,0,0,0,4.14-8.68q1.86-4.76,3.41-9.41c1-3.1,1.89-5.76,2.58-8l.62-1.87a2,2,0,0,1,1.24-1.65,2.81,2.81,0,0,1,2-.1A2.94,2.94,0,0,1,480.24,94a2.8,2.8,0,0,1,.21,2.38A6.76,6.76,0,0,1,480,98c-.69,2.35-1.58,5.14-2.69,8.38s-2.37,6.51-3.82,9.82a84.33,84.33,0,0,1-4.76,9.3,21.79,21.79,0,0,1-5.69,6.62,10.07,10.07,0,0,1-7,2.69,25.61,25.61,0,0,1-7-1.45,13.4,13.4,0,0,1-8.37-7.55,35.47,35.47,0,0,1-2.79-12.09,53.13,53.13,0,0,1-.31-7.45,64.89,64.89,0,0,1,.51-6.82,11.9,11.9,0,0,1,.21-2.9q.21-3.3.31-6.3a54.34,54.34,0,0,1,.52-5.9q.62-6.83.82-12.61a26.52,26.52,0,0,0-.82-8.9q-1-2.47-4.35-1.44-4.55,3.93-8.47,11.78a87.39,87.39,0,0,0-5.07,11.9q-2.18,6.3-3.83,12.3t-2.79,11.17c-.76,3.44-1.34,6.2-1.76,8.27.14,2.76.24,5.37.31,7.86s.24,4.89.52,7.23h-.2l-.63,1.24a2.49,2.49,0,0,1-1.34,1.25,6.28,6.28,0,0,0-1.14.41q-7.23,1.44-10.13-1.55a16,16,0,0,1-3.93-8.17,79.3,79.3,0,0,1-.93-8.58q-.32-5.07-.31-10.24t.21-9.72c.14-3,.27-5.44.41-7.24q.61-7,1.66-14.57t2.89-16.24a4.84,4.84,0,0,1,3.93-5.17,10.22,10.22,0,0,1,8.48,1,10.39,10.39,0,0,1,3.72,3.41,6.8,6.8,0,0,1,.83,5.27,234.19,234.19,0,0,0-3.72,28.13q1.65-5.39,3.72-10.55c1.37-3.45,2.82-6.75,4.34-9.93a47,47,0,0,1,8.69-12.4q4.95-5,11-5a14.32,14.32,0,0,1,7.34,1.76,11.92,11.92,0,0,1,4.65,5.07,29.25,29.25,0,0,1,2.48,7.65,51,51,0,0,1,.83,9.51,88,88,0,0,1-.31,11.06q-.52,5.7-.93,11.69-.42,4.75-.83,9.1c-.28,2.89-.41,5.58-.41,8.06,0,2.21.06,4.1.2,5.69a15.6,15.6,0,0,0,.83,4c.69,1.24,1.48,1.9,2.38,2A4.21,4.21,0,0,0,460.18,128Z"/><path class="cls-1" d="M532.56,83.75q-.42,6.61-.62,12.82a111.13,111.13,0,0,0,.2,11.79,81.47,81.47,0,0,0,1.86,15.2q1.46,5.89,3.93,6.51c2.35.42,4.62-.58,6.83-3a44.58,44.58,0,0,0,6.2-9,91.45,91.45,0,0,0,5.69-12.41q2.37-6.4,4-11.17a2.62,2.62,0,0,1,1.45-1.86,2.78,2.78,0,0,1,2-.1,2.55,2.55,0,0,1,1.45,1.24,3.08,3.08,0,0,1,.1,2.38q-1.65,5-4.13,11.68a94.43,94.43,0,0,1-5.79,12.72,44.26,44.26,0,0,1-8,11q-4.46,4.35-9.83,3.93-9.3-.62-14.16-9.2t-6.31-21.61c0-.28,0-.45-.1-.52a.8.8,0,0,1-.11-.52q-1.65,5.39-3.61,10.86a65.24,65.24,0,0,1-4.55,10A35.5,35.5,0,0,1,503.5,132a9.75,9.75,0,0,1-6.3,3.2q-7.45.42-12.31-4a25.92,25.92,0,0,1-7.13-11.89,40.11,40.11,0,0,1-2.28-9.62,56.7,56.7,0,0,1-.2-10.85,101.27,101.27,0,0,1,1.44-11.17,62.55,62.55,0,0,1,2.9-10.55,58.88,58.88,0,0,1,5-10,36.18,36.18,0,0,1,6.62-8,25.23,25.23,0,0,1,8.37-5,22,22,0,0,1,10-1q6.61.83,9.52,8.27a164.86,164.86,0,0,1,4.44-20,145.43,145.43,0,0,1,6.31-17.68q5-11.79,11.48-18.4T555.1.62c.55.28,1.06.52,1.55.72s1,.45,1.55.73a10.36,10.36,0,0,1,4.45,7.13,31.53,31.53,0,0,1-.11,11.07,92,92,0,0,1-3.2,12.09,136.47,136.47,0,0,1-5.28,13.34q-2.68,6.21-5.79,12.1t-6,11q-2.91,5.07-5.48,9T532.56,83.75Zm-24-24Q505,61,502.16,65.55a54.1,54.1,0,0,0-5.17,11,92,92,0,0,0-3.41,12.2,118.46,118.46,0,0,0-2,12.83q-.42,6.4-.31,12a43.82,43.82,0,0,0,1.14,9.72q1.65,6.62,4.34,6.41t5.07-3.21a37.1,37.1,0,0,0,4.44-7.44,97.94,97.94,0,0,0,3.93-9.93q1.86-5.47,3.21-10.65c.89-3.44,1.62-6.54,2.17-9.3s1-4.76,1.24-6V81.79a4.24,4.24,0,0,1,.21-1.35q-.21-4.55-.73-8.68a37.5,37.5,0,0,0-1.55-7.24,9.24,9.24,0,0,0-1.65-3.31,5.63,5.63,0,0,0-1.86-1.55A3.38,3.38,0,0,0,508.57,59.76ZM554.06,6q-2.89.21-5.68,5.37a79.25,79.25,0,0,0-5.48,13.86,143.47,143.47,0,0,0-5,19.13Q535.86,55,534.21,66.17L533.59,73q3.51-5.58,7.76-13.34t8-16.23a133.08,133.08,0,0,0,5-12.62,90.84,90.84,0,0,0,3.1-11.58,28.15,28.15,0,0,0,.42-8.06q-.42-3.31-2.49-4.55Z"/><path class="cls-1" d="M576.6,105.26a42.93,42.93,0,0,0,.21,4.34c.14,1.38.34,2.76.62,4.14a43.06,43.06,0,0,0,3,11c1.31,2.89,3.06,4.62,5.27,5.17a13.82,13.82,0,0,0,8-1.14,24,24,0,0,0,7.34-5.48,52.12,52.12,0,0,0,8.38-12.1,114,114,0,0,0,6.93-16.65,2.59,2.59,0,0,1,1.44-1.86,2.81,2.81,0,0,1,2-.1,2.92,2.92,0,0,1,1.55,1.34,2.66,2.66,0,0,1,0,2.49,122.65,122.65,0,0,1-7.34,17.68,55.32,55.32,0,0,1-9,12.92,26.54,26.54,0,0,1-10.44,7.24,19.33,19.33,0,0,1-11.89.41A25.21,25.21,0,0,1,568,124.7a41.46,41.46,0,0,1-6.93-17.17,43,43,0,0,1-.93-9.82,69.91,69.91,0,0,1,.93-10,71.72,71.72,0,0,1,2.28-9.62,46.87,46.87,0,0,1,3.72-8.78,34.07,34.07,0,0,1,9.72-11.48A19,19,0,0,1,590,54.18a8.83,8.83,0,0,1,7.45,4.55,12.24,12.24,0,0,1,2,4.76,31.37,31.37,0,0,1,.52,6,54.39,54.39,0,0,1-.83,6.21,39,39,0,0,1-1.86,6.61A53.14,53.14,0,0,1,589.22,96,29.87,29.87,0,0,1,576.6,105.26Zm13.24-45.7q-2.28,0-4.55,3.2a30.94,30.94,0,0,0-3.93,8.17,64,64,0,0,0-2.69,9.93q-1,5.37-1.65,11c-.14,1.24-.25,2.48-.31,3.72s-.11,2.55-.11,3.93A27,27,0,0,0,586,91.4a47.7,47.7,0,0,0,6.1-11,42.74,42.74,0,0,0,2.48-11.16,16.54,16.54,0,0,0-1.44-7.66A4.38,4.38,0,0,0,589.84,59.56Z"/><path class="cls-1" d="M616.3,94.5c.28-.82.59-1.82.94-3s.65-2.31.93-3.42c.27-.82.51-1.65.72-2.48s.45-1.79.72-2.89A32.09,32.09,0,0,1,616,75a26.65,26.65,0,0,1-1.13-9.2,19.79,19.79,0,0,1,3.93-12,19.5,19.5,0,0,1,9.09-6.62,21.76,21.76,0,0,1,8.48-1.45,18.37,18.37,0,0,1,8.28,2.07,17,17,0,0,1,8.06,7.44,21,21,0,0,1,2.07,11.17,12.36,12.36,0,0,1-1.24,5.17,7.54,7.54,0,0,1-2.28,2.69,4.48,4.48,0,0,1-4.55.41A5.07,5.07,0,0,1,644,71.76a7.37,7.37,0,0,1-.2-3,4.9,4.9,0,0,1,1.86-3,15.47,15.47,0,0,0,1.45-2.17,7.72,7.72,0,0,0,.82-2.59,10.47,10.47,0,0,0-1-4.75,12.25,12.25,0,0,0-4.55-3.72,15.46,15.46,0,0,0-6.2-1.45A6.44,6.44,0,0,0,630,54.9a11.54,11.54,0,0,0-1,3.83,18.43,18.43,0,0,0,0,3.93,19,19,0,0,0,1.65,6.41,24.67,24.67,0,0,0,5.48,7.75q3.83,3.84,8.17,8,5.79,5.37,11,11.06a34.89,34.89,0,0,1,7.45,12.51,30.15,30.15,0,0,0,7.75-5.27,20.84,20.84,0,0,0,5.27-8.59,3.28,3.28,0,0,1,1.66-1.65,2.78,2.78,0,0,1,2-.1A2.54,2.54,0,0,1,680.72,94a2.61,2.61,0,0,1,.1,2.17,26.39,26.39,0,0,1-6.92,11.27,33.24,33.24,0,0,1-10.24,6.31,27.77,27.77,0,0,1-1.14,10.13A31.68,31.68,0,0,1,657.46,134a37.27,37.27,0,0,1-7.14,7.24,41.41,41.41,0,0,1-9.82,5.58,26.3,26.3,0,0,1-11.17,2.48,20.9,20.9,0,0,1-7.75-1.75,17.33,17.33,0,0,1-5.69-4,16.74,16.74,0,0,1-3.31-6.61,18,18,0,0,1-.2-7.24,17.72,17.72,0,0,1,4.54-8.07,21.67,21.67,0,0,1,9.93-5.58c2.48-.69,5-1.27,7.55-1.76s5.2-.86,8-1.13l2.9-.42a33,33,0,0,0-5.07-6.93q-3.21-3.4-6.93-6.92c-1.65-1.66-3.27-3.31-4.86-5s-3.14-3.37-4.65-5.17l-.21.83-2.07,6.62A2.89,2.89,0,0,1,620,97.92a2.94,2.94,0,0,1-2,.31,2.51,2.51,0,0,1-1.55-1.14A3.23,3.23,0,0,1,616.3,94.5Zm30.61,23.37-3.72.62c-2.62.28-5.17.62-7.65,1a60.05,60.05,0,0,0-7.24,1.65,16.55,16.55,0,0,0-7.24,4,13.08,13.08,0,0,0-3.31,5.69,9.36,9.36,0,0,0,0,4.76A12,12,0,0,0,620,140a15,15,0,0,0,3.93,2.79,12.33,12.33,0,0,0,5.58,1.14,18.33,18.33,0,0,0,8.68-2.07,15.64,15.64,0,0,0,6.62-6.41,21.67,21.67,0,0,0,2.48-7.65,29.32,29.32,0,0,0-.41-9.72Z"/></g></g></svg>